<?xml version="1.0" encoding="UTF-8"?>
<svg xmlns="http://www.w3.org/2000/svg" xmlns:xlink="http://www.w3.org/1999/xlink" width="32px" height="32px" viewBox="0 0 32 32" version="1.1">
<g id="surface1">
<path style=" stroke:none;fill-rule:nonzero;fill:rgb(40.000001%,29.411766%,22.745098%);fill-opacity:1;" d="M 18.914062 18.628906 C 19.574219 19.019531 20.3125 19.488281 21.027344 20.046875 C 21.960938 20.375 23 20.84375 24.191406 21.503906 C 24.371094 21.601562 24.558594 21.695312 24.75 21.789062 C 24.777344 21.59375 24.785156 21.398438 24.773438 21.214844 C 24.707031 20.054688 24.042969 20.492188 23.871094 20.589844 C 23.550781 20.765625 23.175781 20.621094 22.898438 20.285156 C 24.054688 19.683594 24.707031 18.496094 24.707031 17.535156 C 24.707031 16.660156 24.160156 16.960938 23.992188 17.03125 C 23.121094 17.382812 22.285156 15.648438 23.480469 14.355469 C 24.132812 13.726562 23.800781 13.285156 23.605469 13.066406 C 23.386719 12.816406 23.144531 12.589844 22.910156 12.402344 C 22.84375 12.535156 22.789062 12.652344 22.722656 12.753906 C 22.246094 15.105469 20.8125 17.417969 18.914062 18.628906 Z M 18.914062 18.628906 "/>
<path style=" stroke:none;fill-rule:nonzero;fill:rgb(40.000001%,29.411766%,22.745098%);fill-opacity:1;" d="M 13.417969 18.746094 C 13.410156 18.742188 13.402344 18.738281 13.394531 18.734375 C 13.394531 18.941406 13.390625 19.179688 13.394531 19.433594 C 13.402344 19.433594 13.410156 19.433594 13.417969 19.433594 Z M 13.417969 18.746094 "/>
<path style=" stroke:none;fill-rule:nonzero;fill:rgb(40.000001%,29.411766%,22.745098%);fill-opacity:1;" d="M 11.144531 19.984375 C 11.800781 19.410156 12.738281 19.03125 13.394531 18.734375 C 11.6875 17.636719 10.175781 15.53125 9.585938 13.425781 C 9.417969 13.285156 9.253906 12.996094 9.082031 12.523438 C 8.902344 12.679688 8.710938 12.871094 8.535156 13.066406 C 8.339844 13.285156 8.011719 13.726562 8.664062 14.355469 C 9.859375 15.648438 9.019531 17.382812 8.152344 17.03125 C 7.980469 16.960938 7.4375 16.660156 7.4375 17.535156 C 7.4375 18.496094 8.089844 19.683594 9.246094 20.285156 C 8.96875 20.621094 8.589844 20.765625 8.273438 20.589844 C 8.101562 20.492188 7.4375 20.054688 7.371094 21.214844 C 7.359375 21.378906 7.367188 21.550781 7.386719 21.722656 C 7.53125 21.652344 7.671875 21.578125 7.808594 21.503906 C 9.074219 20.800781 10.167969 20.316406 11.144531 19.984375 Z M 11.144531 19.984375 "/>
<path style=" stroke:none;fill-rule:nonzero;fill:rgb(87.058824%,78.431374%,68.235296%);fill-opacity:1;" d="M 16.035156 27.382812 C 16.039062 27.375 16.042969 27.367188 16.046875 27.359375 C 16.042969 27.355469 16.039062 27.351562 16.035156 27.34375 C 16.035156 27.359375 16.035156 27.371094 16.035156 27.382812 Z M 16.035156 27.382812 "/>
<path style=" stroke:none;fill-rule:nonzero;fill:rgb(87.058824%,78.431374%,68.235296%);fill-opacity:1;" d="M 13.394531 19.433594 C 13.398438 19.640625 13.40625 19.859375 13.417969 20.085938 L 13.417969 19.433594 C 13.410156 19.433594 13.402344 19.433594 13.394531 19.433594 Z M 13.394531 19.433594 "/>
<path style=" stroke:none;fill-rule:nonzero;fill:rgb(96.862745%,94.509804%,90.196079%);fill-opacity:1;" d="M 16.027344 26.691406 C 16.039062 26.832031 16.046875 26.980469 16.050781 27.132812 C 16.058594 26.984375 16.066406 26.832031 16.027344 26.691406 Z M 16.027344 26.691406 "/>
<path style=" stroke:none;fill-rule:nonzero;fill:rgb(96.862745%,94.509804%,90.196079%);fill-opacity:1;" d="M 24.75 21.789062 C 24.558594 21.695312 24.371094 21.601562 24.191406 21.503906 C 23 20.84375 21.960938 20.375 21.027344 20.046875 C 21.785156 20.726562 22.386719 21.515625 22.507812 22.238281 C 21.734375 21.675781 21.175781 21.308594 19.382812 21.292969 C 19.816406 21.765625 20.417969 22.980469 20.652344 24.085938 C 19.539062 24.085938 17.722656 24.894531 16.054688 27.371094 C 16.050781 27.367188 16.050781 27.363281 16.046875 27.359375 C 16.042969 27.367188 16.039062 27.375 16.035156 27.382812 C 16.035156 27.371094 16.035156 27.359375 16.035156 27.34375 C 14.375 24.886719 12.5625 24.085938 11.453125 24.085938 C 11.691406 22.980469 12.292969 21.765625 12.722656 21.292969 C 10.929688 21.308594 10.371094 21.675781 9.601562 22.238281 C 9.722656 21.496094 10.359375 20.679688 11.148438 19.984375 C 10.167969 20.316406 9.074219 20.800781 7.808594 21.503906 C 7.671875 21.578125 7.53125 21.652344 7.386719 21.722656 C 5.898438 22.464844 4.152344 23.054688 4.152344 25.15625 C 4.152344 26.441406 4.152344 28.417969 4.152344 29.917969 C 4.152344 31.109375 5.371094 32 7.085938 32 C 9.753906 32 13.628906 32 16 32 C 18.371094 32 22.246094 32 24.914062 32 C 26.628906 32 27.847656 31.109375 27.847656 29.917969 C 27.847656 28.417969 27.847656 26.441406 27.847656 25.15625 C 27.847656 23.117188 26.207031 22.503906 24.75 21.789062 Z M 23.808594 29.054688 C 23.808594 29.273438 23.632812 29.449219 23.414062 29.449219 L 22.789062 29.449219 L 22.789062 30.074219 C 22.789062 30.289062 22.613281 30.464844 22.398438 30.464844 L 22.136719 30.464844 C 21.917969 30.464844 21.742188 30.289062 21.742188 30.074219 L 21.742188 29.449219 L 21.117188 29.449219 C 20.902344 29.449219 20.722656 29.273438 20.722656 29.054688 L 20.722656 28.792969 C 20.722656 28.574219 20.902344 28.398438 21.117188 28.398438 L 21.742188 28.398438 L 21.742188 27.773438 C 21.742188 27.558594 21.917969 27.382812 22.136719 27.382812 L 22.398438 27.382812 C 22.613281 27.382812 22.789062 27.558594 22.789062 27.773438 L 22.789062 28.398438 L 23.414062 28.398438 C 23.632812 28.398438 23.808594 28.574219 23.808594 28.792969 Z M 23.808594 29.054688 "/>
<path style=" stroke:none;fill-rule:nonzero;fill:rgb(87.058824%,78.431374%,68.235296%);fill-opacity:1;" d="M 18.710938 18.753906 C 17.898438 19.234375 17.007812 19.511719 16.070312 19.511719 C 15.132812 19.511719 14.238281 19.230469 13.417969 18.746094 L 13.417969 20.085938 C 13.464844 20.753906 13.578125 21.484375 13.859375 22.144531 C 13.980469 22.425781 14.128906 22.695312 14.316406 22.941406 C 15.226562 24.132812 15.886719 25.042969 16.027344 26.691406 C 16.066406 26.832031 16.058594 26.984375 16.050781 27.132812 C 16.050781 27.203125 16.054688 27.273438 16.054688 27.347656 C 16.054688 27.347656 16.054688 27.347656 16.054688 27.34375 C 16.058594 25.269531 16.765625 24.28125 17.792969 22.941406 C 17.992188 22.679688 18.144531 22.394531 18.269531 22.09375 C 18.738281 20.953125 18.71875 19.617188 18.710938 18.753906 Z M 18.710938 18.753906 "/>
<path style=" stroke:none;fill-rule:nonzero;fill:rgb(95.294118%,85.882354%,74.117649%);fill-opacity:1;" d="M 13.394531 18.734375 C 13.402344 18.738281 13.410156 18.742188 13.417969 18.746094 C 14.238281 19.230469 15.132812 19.511719 16.070312 19.511719 C 17.007812 19.511719 17.898438 19.234375 18.710938 18.753906 C 18.800781 18.703125 18.824219 18.6875 18.914062 18.628906 C 20.8125 17.417969 22.246094 15.117188 22.722656 12.761719 C 22.082031 13.765625 21.585938 13.402344 21.484375 11.792969 C 21.417969 10.722656 20.804688 9.472656 19.605469 8.59375 C 19.804688 9.097656 19.945312 9.664062 20.003906 10.28125 C 20.046875 10.714844 19.902344 11.632812 18.722656 11.53125 C 16.050781 11.128906 13.695312 9.890625 12.394531 8.53125 C 11.035156 9.53125 10.589844 10.996094 10.613281 11.835938 C 10.640625 12.773438 10.15625 13.925781 9.585938 13.441406 C 10.175781 15.542969 11.507812 17.523438 13.214844 18.621094 C 13.269531 18.660156 13.285156 18.675781 13.394531 18.734375 Z M 13.394531 18.734375 "/>
<path style=" stroke:none;fill-rule:nonzero;fill:rgb(100%,100%,100%);fill-opacity:1;" d="M 16.050781 27.132812 C 16.046875 26.980469 16.039062 26.832031 16.027344 26.691406 C 15.886719 25.042969 15.226562 24.132812 14.316406 22.941406 C 14.128906 22.695312 13.980469 22.425781 13.859375 22.144531 C 13.578125 21.484375 13.464844 20.753906 13.417969 20.085938 C 13.40625 19.859375 13.421875 19.65625 13.417969 19.449219 C 13.417969 19.191406 13.417969 19.175781 13.417969 18.964844 C 13.421875 18.898438 13.417969 18.792969 13.417969 18.734375 C 13.304688 18.679688 13.339844 18.6875 13.25 18.636719 C 12.59375 18.933594 11.800781 19.410156 11.148438 19.984375 C 10.359375 20.679688 9.722656 21.496094 9.601562 22.238281 C 10.371094 21.675781 10.929688 21.308594 12.722656 21.292969 C 12.292969 21.765625 11.691406 22.980469 11.453125 24.085938 C 12.5625 24.085938 14.375 24.886719 16.035156 27.34375 C 16.039062 27.351562 16.042969 27.355469 16.046875 27.359375 C 16.050781 27.363281 16.050781 27.367188 16.054688 27.371094 C 16.054688 27.363281 16.054688 27.355469 16.054688 27.347656 C 16.054688 27.273438 16.050781 27.203125 16.050781 27.132812 Z M 16.050781 27.132812 "/>
<path style=" stroke:none;fill-rule:nonzero;fill:rgb(100%,100%,100%);fill-opacity:1;" d="M 18.710938 18.753906 C 18.71875 19.617188 18.738281 20.953125 18.269531 22.09375 C 18.144531 22.394531 17.992188 22.679688 17.792969 22.941406 C 16.765625 24.28125 16.058594 25.269531 16.054688 27.34375 C 16.054688 27.355469 16.054688 27.363281 16.054688 27.371094 C 17.722656 24.894531 19.539062 24.085938 20.652344 24.085938 C 20.417969 22.980469 19.816406 21.765625 19.382812 21.292969 C 21.175781 21.308594 21.734375 21.675781 22.507812 22.238281 C 22.386719 21.515625 21.785156 20.726562 21.027344 20.046875 C 20.367188 19.449219 18.914062 18.628906 18.914062 18.628906 C 18.914062 18.628906 18.792969 18.707031 18.710938 18.753906 Z M 18.710938 18.753906 "/>
<path style=" stroke:none;fill-rule:nonzero;fill:rgb(40.000001%,29.411766%,22.745098%);fill-opacity:1;" d="M 9.585938 13.441406 C 10.15625 13.925781 10.640625 12.773438 10.613281 11.835938 C 10.589844 10.996094 11.035156 9.53125 12.394531 8.53125 C 13.695312 9.890625 16.050781 11.128906 18.722656 11.53125 C 19.902344 11.632812 20.046875 10.714844 20.003906 10.28125 C 19.945312 9.664062 19.804688 9.097656 19.605469 8.59375 C 20.804688 9.472656 21.417969 10.722656 21.484375 11.792969 C 21.585938 13.402344 22.082031 13.765625 22.722656 12.761719 C 22.789062 12.660156 22.855469 12.542969 22.925781 12.414062 C 22.96875 12.328125 23.015625 12.234375 23.0625 12.136719 C 23.589844 11.015625 22.925781 7.460938 20.800781 5.136719 C 20.480469 5.714844 19.882812 6.121094 18.988281 6.121094 L 13.460938 6.121094 C 12.367188 6.121094 11.710938 5.511719 11.476562 4.722656 C 11.472656 4.707031 11.464844 4.6875 11.460938 4.667969 C 9.167969 6.589844 8.320312 9.769531 8.851562 11.824219 C 8.921875 12.097656 8.996094 12.335938 9.070312 12.539062 C 9.242188 13.011719 9.417969 13.300781 9.585938 13.441406 Z M 9.585938 13.441406 "/>
<path style=" stroke:none;fill-rule:nonzero;fill:rgb(96.862745%,94.509804%,90.196079%);fill-opacity:1;" d="M 13.460938 6.121094 L 18.988281 6.121094 C 19.882812 6.121094 20.480469 5.714844 20.800781 5.136719 C 20.871094 5.007812 20.929688 4.867188 20.96875 4.722656 C 21.207031 3.9375 21.757812 2.074219 21.757812 2.074219 C 22.074219 1.132812 21.550781 0 20.453125 0 L 11.996094 0 C 10.898438 0 10.375 1.132812 10.691406 2.074219 C 10.691406 2.074219 11.21875 3.847656 11.460938 4.667969 C 11.464844 4.6875 11.472656 4.707031 11.476562 4.722656 C 11.710938 5.511719 12.363281 6.121094 13.460938 6.121094 Z M 14.683594 2.929688 C 14.683594 2.710938 14.859375 2.535156 15.074219 2.535156 L 15.699219 2.535156 L 15.699219 1.910156 C 15.699219 1.695312 15.875 1.519531 16.09375 1.519531 L 16.355469 1.519531 C 16.574219 1.519531 16.75 1.695312 16.75 1.910156 L 16.75 2.535156 L 17.371094 2.535156 C 17.589844 2.535156 17.765625 2.710938 17.765625 2.929688 L 17.765625 3.191406 C 17.765625 3.410156 17.589844 3.585938 17.371094 3.585938 L 16.75 3.585938 L 16.75 4.207031 C 16.75 4.425781 16.574219 4.601562 16.355469 4.601562 L 16.09375 4.601562 C 15.875 4.601562 15.699219 4.425781 15.699219 4.207031 L 15.699219 3.585938 L 15.074219 3.585938 C 14.859375 3.585938 14.683594 3.410156 14.683594 3.191406 Z M 14.683594 2.929688 "/>
<path style=" stroke:none;fill-rule:nonzero;fill:rgb(90.588236%,26.666668%,14.117648%);fill-opacity:1;" d="M 15.074219 3.585938 L 15.699219 3.585938 L 15.699219 4.207031 C 15.699219 4.425781 15.875 4.601562 16.09375 4.601562 L 16.355469 4.601562 C 16.574219 4.601562 16.75 4.425781 16.75 4.207031 L 16.75 3.585938 L 17.371094 3.585938 C 17.589844 3.585938 17.765625 3.410156 17.765625 3.191406 L 17.765625 2.929688 C 17.765625 2.710938 17.589844 2.535156 17.371094 2.535156 L 16.75 2.535156 L 16.75 1.910156 C 16.75 1.695312 16.574219 1.519531 16.355469 1.519531 L 16.09375 1.519531 C 15.875 1.519531 15.699219 1.695312 15.699219 1.910156 L 15.699219 2.535156 L 15.074219 2.535156 C 14.859375 2.535156 14.683594 2.710938 14.683594 2.929688 L 14.683594 3.191406 C 14.683594 3.410156 14.859375 3.585938 15.074219 3.585938 Z M 15.074219 3.585938 "/>
<path style=" stroke:none;fill-rule:nonzero;fill:rgb(90.588236%,26.666668%,14.117648%);fill-opacity:1;" d="M 23.414062 28.398438 L 22.789062 28.398438 L 22.789062 27.773438 C 22.789062 27.558594 22.613281 27.382812 22.398438 27.382812 L 22.136719 27.382812 C 21.917969 27.382812 21.742188 27.558594 21.742188 27.773438 L 21.742188 28.398438 L 21.117188 28.398438 C 20.902344 28.398438 20.722656 28.574219 20.722656 28.792969 L 20.722656 29.054688 C 20.722656 29.273438 20.902344 29.449219 21.117188 29.449219 L 21.742188 29.449219 L 21.742188 30.074219 C 21.742188 30.289062 21.917969 30.464844 22.136719 30.464844 L 22.398438 30.464844 C 22.613281 30.464844 22.789062 30.289062 22.789062 30.074219 L 22.789062 29.449219 L 23.414062 29.449219 C 23.632812 29.449219 23.808594 29.273438 23.808594 29.054688 L 23.808594 28.792969 C 23.808594 28.574219 23.632812 28.398438 23.414062 28.398438 Z M 23.414062 28.398438 "/>
</g>
</svg>
